<svg width="40" height="41" viewBox="0 0 40 41" fill="none" xmlns="http://www.w3.org/2000/svg">
<path d="M36.2477 10.0209H5.94963C5.58775 10.0909 5.21487 10.0801 4.85769 9.9891C4.5005 9.89814 4.16785 9.72931 3.88356 9.49471C3.59927 9.26011 3.37037 8.96555 3.21327 8.63212C3.05616 8.29869 2.97473 7.93464 2.97481 7.56605V7.51856L34.9978 6.27113V3.29632C35.05 2.85247 35.0007 2.40257 34.8535 1.98058C34.7064 1.55859 34.4653 1.17555 34.1485 0.86038C33.8316 0.545213 33.4473 0.306161 33.0245 0.161275C32.6017 0.016389 32.1516 -0.0305425 31.708 0.0240244L3.2748 4.64624C2.31438 4.99925 1.4854 5.63845 0.899786 6.47754C0.314167 7.31663 0.000105073 8.3152 0 9.33844L0 36.2668C0 37.2613 0.395063 38.215 1.09828 38.9182C1.8015 39.6215 2.75527 40.0165 3.74977 40.0165H36.2477C37.2422 40.0165 38.196 39.6215 38.8992 38.9182C39.6024 38.215 39.9975 37.2613 39.9975 36.2668V13.7432L40 13.6407C40 12.6793 39.6181 11.7573 38.9383 11.0776C38.2586 10.3978 37.3366 10.0159 36.3752 10.0159L36.2427 10.0184L36.2477 10.0209ZM32.498 27.5198C31.5031 27.5195 30.5492 27.124 29.846 26.4203C29.1427 25.7166 28.7479 24.7624 28.7482 23.7675C28.7485 22.7727 29.144 21.8188 29.8477 21.1155C30.5514 20.4123 31.5056 20.0174 32.5005 20.0178C32.9931 20.0179 33.4808 20.1151 33.9358 20.3038C34.3909 20.4924 34.8043 20.7689 35.1525 21.1173C35.5007 21.4657 35.7768 21.8793 35.9652 22.3345C36.1535 22.7896 36.2504 23.2775 36.2502 23.77C36.2501 24.2626 36.1529 24.7504 35.9642 25.2054C35.7756 25.6604 35.4991 26.0738 35.1507 26.422C34.8023 26.7702 34.3887 27.0464 33.9335 27.2348C33.4784 27.4231 32.9906 27.52 32.498 27.5198Z" fill="#018BF6"/>
<path fill-rule="evenodd" clip-rule="evenodd" d="M21.4357 18.1753L20.9777 20.6178L25.3284 21.2284L25.0231 22.3734L20.7487 21.7627C20.4434 22.755 20.2908 23.8236 19.9091 24.7395C19.5275 25.8081 19.1458 26.8767 18.6879 27.869C18.0772 29.1666 17.0086 30.0825 15.5584 30.3115C14.7188 30.4642 13.8028 30.3879 13.1159 29.8536C12.8869 29.7009 12.6579 29.3956 12.6579 29.1666C12.6579 28.8613 12.8106 28.4796 13.0395 28.327C13.1922 28.2507 13.5738 28.327 13.8028 28.4033C14.0318 28.6323 14.2608 28.9376 14.4135 29.2429C14.8714 29.8536 15.4821 29.9299 16.0927 29.4719C16.7796 28.8613 17.1613 28.0217 17.3903 27.1821C17.8482 25.3502 18.3062 23.5946 18.6879 21.7627V21.4574L14.6424 20.8468L14.7951 19.7019L18.9932 20.3125L19.5275 17.9463L15.1767 17.2593L15.3294 16.0381L19.8328 16.6487C19.9854 16.1907 20.0618 15.8091 20.2144 15.4275C20.5961 14.0535 20.9777 12.6796 21.8937 11.4584C22.8096 10.2371 23.8782 9.47383 25.4811 9.55016C26.1681 9.55016 26.855 9.77915 27.313 10.3134C27.3893 10.3898 27.542 10.5424 27.542 10.6951C27.542 11.0004 27.542 11.382 27.313 11.611C27.0077 11.84 26.626 11.7637 26.3207 11.4584C26.0917 11.2294 25.9391 11.0004 25.7101 10.7714C25.2521 10.1608 24.5652 10.0845 24.0309 10.6188C23.6492 11.0004 23.2676 11.5347 23.0386 12.069C22.5043 13.6719 22.1226 15.3511 21.5883 17.0304L25.7864 17.641L25.4811 18.7859L21.4357 18.1753Z" fill="white"/>
</svg>
