<svg width="17" height="22" viewBox="0 0 17 22" fill="none" xmlns="http://www.w3.org/2000/svg">
<path d="M1.30322 11.0068C1.30876 10.8132 1.34749 10.6361 1.41943 10.4756C1.49137 10.3151 1.60205 10.1602 1.75146 10.0107L10.0688 1.95898C10.3068 1.72103 10.6001 1.60205 10.9487 1.60205C11.1812 1.60205 11.3914 1.65739 11.5796 1.76807C11.7733 1.87874 11.9255 2.02816 12.0361 2.21631C12.1523 2.40446 12.2104 2.61475 12.2104 2.84717C12.2104 3.19027 12.0804 3.49186 11.8203 3.75195L4.2998 10.9985L11.8203 18.2534C12.0804 18.519 12.2104 18.8206 12.2104 19.1582C12.2104 19.3962 12.1523 19.6092 12.0361 19.7974C11.9255 19.9855 11.7733 20.1349 11.5796 20.2456C11.3914 20.3618 11.1812 20.4199 10.9487 20.4199C10.6001 20.4199 10.3068 20.2982 10.0688 20.0547L1.75146 12.0029C1.59652 11.8535 1.48307 11.6986 1.41113 11.5381C1.33919 11.3721 1.30322 11.195 1.30322 11.0068Z" fill="#007AFF"/>
</svg>
