<svg width="40" height="38" viewBox="0 0 40 38" fill="none" xmlns="http://www.w3.org/2000/svg">
<path d="M38 19.0907C38 23.7126 36.1036 28.1451 32.7279 31.4132C29.3523 34.6814 24.7739 36.5174 20 36.5174C15.2261 36.5174 10.6477 34.6814 7.27208 31.4132C3.89642 28.1451 2 23.7126 2 19.0907C2 14.4689 3.89642 10.0363 7.27208 6.76821C10.6477 3.50008 15.2261 1.66406 20 1.66406C24.7739 1.66406 29.3523 3.50008 32.7279 6.76821C36.1036 10.0363 38 14.4689 38 19.0907Z" fill="#F0ECEC" stroke="#FCFCFC" stroke-width="0.1875" stroke-linecap="round" stroke-linejoin="round"/>
<path d="M38 19.0907C38 23.7126 36.1036 28.1451 32.7279 31.4133C29.3523 34.6814 24.7739 36.5174 20 36.5174M38 19.0907H34.0001M38 19.0907C38 17.0538 37.64 15.098 36.9761 13.2819M20 36.5174C15.2261 36.5174 10.6477 34.6814 7.27208 31.4133C3.89642 28.1451 2 23.7126 2 19.0907M20 36.5174V32.6449M2 19.0907C2 14.4689 3.89642 10.0364 7.27208 6.76822C10.6477 3.50009 15.2261 1.66407 20 1.66407M2 19.0907H5.99994M20 1.66407V5.5366M20 1.66407C22.5329 1.66144 25.0378 2.17765 27.35 3.1788C29.6622 4.17994 31.7295 5.64338 33.416 7.47296M33.416 7.47296V1.66407M33.416 7.47296H28.0001M20 11.3455V19.0907L23.9999 21.0271" stroke="#060606" stroke-width="2.625" stroke-linecap="round" stroke-linejoin="round"/>
</svg>
