<svg width="40" height="38" viewBox="0 0 40 38" fill="none" xmlns="http://www.w3.org/2000/svg">
<path d="M38 19.0907C38 28.7153 29.9412 36.5174 20 36.5174C10.0589 36.5174 2 28.7153 2 19.0907C2 9.46631 10.0589 1.66406 20 1.66406C29.9412 1.66406 38 9.46631 38 19.0907Z" fill="#F0ECEC" stroke="#FCFCFC" stroke-width="2.625" stroke-linecap="round" stroke-linejoin="round"/>
<path d="M20 36.5174C29.9413 36.5174 38 28.7153 38 19.0907C38 9.46631 29.9413 1.66406 20 1.66406M20 36.5174C10.0589 36.5174 2 28.7153 2 19.0907C2 9.46631 10.0589 1.66406 20 1.66406M20 36.5174C20 36.5174 11.9999 32.6449 11.9999 19.0907C11.9999 5.53659 20 1.66406 20 1.66406M20 36.5174C20 36.5174 28.0001 32.6449 28.0001 19.0907C28.0001 5.53659 20 1.66406 20 1.66406M3.02431 13.2818H36.9759M3.02431 24.8996H36.9759" stroke="black" stroke-width="2.625" stroke-linecap="round" stroke-linejoin="round"/>
</svg>
