<svg width="36" height="41" viewBox="0 0 36 41" fill="none" xmlns="http://www.w3.org/2000/svg">
<path d="M17.9996 40.4186C17.8547 40.4187 17.7122 40.3868 17.5861 40.3262C6.5736 35.0671 4.33457e-07 26.7656 4.33457e-07 18.1186V7.64564C-0.000219739 7.46097 0.0834443 7.28335 0.233556 7.1498C0.383668 7.01625 0.588646 6.93707 0.805775 6.92876C7.0633 6.6982 13.0078 4.53917 17.5279 0.85533C17.679 0.736314 17.876 0.668352 18.0819 0.664259C18.2879 0.660165 18.4885 0.720222 18.6459 0.833106C23.3764 4.12625 29.161 6.1378 35.2516 6.6076C35.4574 6.62749 35.6475 6.71103 35.7855 6.84231C35.9235 6.97359 35.9999 7.14343 36 7.31946V18.1179C36 26.7649 29.4256 35.0671 18.413 40.3262C18.2869 40.3868 18.1445 40.4187 17.9996 40.4186Z" fill="black"/>
<path d="M8.15625 19.1799C8.15625 17.6761 9.41554 16.457 10.9688 16.457H25.0312C26.5846 16.457 27.8438 17.6761 27.8438 19.1799V24.6257C27.8438 27.6332 25.3253 30.0715 22.2187 30.0715H13.7813C10.6747 30.0715 8.15625 27.6332 8.15625 24.6257V19.1799Z" fill="white" stroke="#FCFCFC" stroke-width="1.84569" stroke-linecap="round" stroke-linejoin="round"/>
<path d="M23.625 16.4568V13.7338C23.625 10.7262 21.1066 8.28809 18 8.28809C14.8934 8.28809 12.375 10.7262 12.375 13.7338V16.4568M13.7813 30.0712H22.2187C25.3253 30.0712 27.8438 27.633 27.8438 24.6255V19.1797C27.8438 17.6759 26.5846 16.4568 25.0312 16.4568H10.9688C9.41554 16.4568 8.15625 17.6759 8.15625 19.1797V24.6255C8.15625 27.633 10.6747 30.0712 13.7813 30.0712Z" stroke="#F0ECEC" stroke-width="1.84569" stroke-linecap="round" stroke-linejoin="round"/>
</svg>
