<svg width="38" height="38" viewBox="0 0 38 38" fill="none" xmlns="http://www.w3.org/2000/svg">
    <path d="M32.8853 6.47691L35.3697 3.74316C35.7626 3.30026 35.9651 2.72034 35.9333 2.12913C35.9015 1.53792 35.6379 0.983074 35.1998 0.584882C34.7616 0.18669 34.1842 -0.022752 33.5926 0.00196324C33.0011 0.0266785 32.4431 0.283559 32.0397 0.716913L29.5572 3.44691C25.8204 0.811274 21.2494 -0.367987 16.7039 0.131005C12.1585 0.629997 7.95213 2.77284 4.87617 6.15637C1.80021 9.5399 0.0667347 13.9309 0.00188727 18.5031C-0.0629601 23.0754 1.54529 27.5138 4.52406 30.9832L2.03968 33.7169C1.83681 33.9348 1.6792 34.1909 1.576 34.4702C1.47281 34.7494 1.42607 35.0464 1.4385 35.3439C1.45093 35.6414 1.52228 35.9335 1.64841 36.2032C1.77455 36.4729 1.95296 36.7149 2.1733 36.9151C2.39365 37.1154 2.65155 37.2699 2.93206 37.3697C3.21256 37.4696 3.51009 37.5127 3.80741 37.4968C4.10472 37.4808 4.39591 37.4059 4.66408 37.2766C4.93226 37.1472 5.17209 36.9659 5.36968 36.7432L7.85218 34.0132C11.5889 36.6488 16.16 37.8281 20.7054 37.3291C25.2508 36.8301 29.4572 34.6872 32.5332 31.3037C35.6091 27.9202 37.3426 23.5292 37.4075 18.9569C37.4723 14.3847 35.8641 9.94632 32.8853 6.47691ZM4.45468 18.73C4.45251 16.161 5.14541 13.6393 6.45996 11.4321C7.7745 9.22491 9.66171 7.41448 11.9216 6.19268C14.1814 4.97088 16.7297 4.38324 19.2964 4.49203C21.8631 4.60083 24.3526 5.40201 26.5009 6.81066L7.58031 27.6232C5.55442 25.1022 4.45153 21.9642 4.45468 18.73ZM18.7047 32.98C15.9338 32.9829 13.2231 32.1725 10.9084 30.6494L29.8291 9.83691C31.5077 11.9315 32.5601 14.458 32.8648 17.1249C33.1695 19.7919 32.7141 22.4906 31.5512 24.9099C30.3883 27.3292 28.5653 29.3705 26.2923 30.7984C24.0193 32.2263 21.389 32.9826 18.7047 32.98Z" fill="#3C3C43" fill-opacity="0.7"/>
    </svg>
    